<svg width="512" height="512" viewBox="0 0 512 512" fill="none" xmlns="http://www.w3.org/2000/svg">
<rect width="512" height="512" fill="white"/>
<rect x="32" y="32" width="192" height="64" rx="8" fill="url(#paint0_linear_1_2)"/>
<rect x="36" y="36" width="184" height="56" rx="4" stroke="black" stroke-opacity="0.2" stroke-width="8"/>
<rect x="32" y="320" width="192" height="64" rx="8" fill="url(#paint1_linear_1_2)"/>
<rect x="36" y="324" width="184" height="56" rx="4" stroke="black" stroke-opacity="0.2" stroke-width="8"/>
<rect x="32" y="128" width="128" height="64" rx="8" fill="url(#paint2_linear_1_2)"/>
<rect x="36" y="132" width="120" height="56" rx="4" stroke="black" stroke-opacity="0.2" stroke-width="8"/>
<rect x="256" y="320" width="96" height="64" rx="8" fill="url(#paint3_linear_1_2)"/>
<rect x="260" y="324" width="88" height="56" rx="4" stroke="black" stroke-opacity="0.2" stroke-width="8"/>
<rect x="256" y="32" width="224" height="64" rx="8" fill="url(#paint4_linear_1_2)"/>
<rect x="260" y="36" width="216" height="56" rx="4" stroke="black" stroke-opacity="0.2" stroke-width="8"/>
<rect x="192" y="128" width="224" height="64" rx="8" fill="url(#paint5_linear_1_2)"/>
<rect x="196" y="132" width="216" height="56" rx="4" stroke="black" stroke-opacity="0.2" stroke-width="8"/>
<rect x="128" y="416" width="160" height="64" rx="8" fill="url(#paint6_linear_1_2)"/>
<rect x="132" y="420" width="152" height="56" rx="4" stroke="black" stroke-opacity="0.2" stroke-width="8"/>
<rect x="320" y="416" width="160" height="64" rx="8" fill="url(#paint7_linear_1_2)"/>
<rect x="324" y="420" width="152" height="56" rx="4" stroke="black" stroke-opacity="0.2" stroke-width="8"/>
<rect x="32" y="224" width="352" height="64" rx="8" fill="url(#paint8_linear_1_2)"/>
<rect x="36" y="228" width="344" height="56" rx="4" stroke="black" stroke-opacity="0.2" stroke-width="8"/>
<rect x="32" y="416" width="64" height="64" rx="8" fill="url(#paint9_linear_1_2)"/>
<rect x="36" y="420" width="56" height="56" rx="4" stroke="black" stroke-opacity="0.2" stroke-width="8"/>
<defs>
<linearGradient id="paint0_linear_1_2" x1="128" y1="32" x2="128" y2="96" gradientUnits="userSpaceOnUse">
<stop stop-color="#B3FF66"/>
<stop offset="1" stop-color="#99EB47"/>
</linearGradient>
<linearGradient id="paint1_linear_1_2" x1="128" y1="320" x2="128" y2="384" gradientUnits="userSpaceOnUse">
<stop stop-color="#B3FF66"/>
<stop offset="1" stop-color="#99EB47"/>
</linearGradient>
<linearGradient id="paint2_linear_1_2" x1="96" y1="128" x2="96" y2="192" gradientUnits="userSpaceOnUse">
<stop stop-color="#E6FF66"/>
<stop offset="1" stop-color="#CFEB47"/>
</linearGradient>
<linearGradient id="paint3_linear_1_2" x1="304" y1="320" x2="304" y2="384" gradientUnits="userSpaceOnUse">
<stop stop-color="#FFE666"/>
<stop offset="1" stop-color="#F2CC0D"/>
</linearGradient>
<linearGradient id="paint4_linear_1_2" x1="368" y1="32" x2="368" y2="96" gradientUnits="userSpaceOnUse">
<stop stop-color="#B3FF66"/>
<stop offset="1" stop-color="#99EB47"/>
</linearGradient>
<linearGradient id="paint5_linear_1_2" x1="304" y1="128" x2="304" y2="192" gradientUnits="userSpaceOnUse">
<stop stop-color="#B3FF66"/>
<stop offset="1" stop-color="#99EB47"/>
</linearGradient>
<linearGradient id="paint6_linear_1_2" x1="208" y1="416" x2="208" y2="480" gradientUnits="userSpaceOnUse">
<stop stop-color="#B3FF66"/>
<stop offset="1" stop-color="#99EB47"/>
</linearGradient>
<linearGradient id="paint7_linear_1_2" x1="400" y1="416" x2="400" y2="480" gradientUnits="userSpaceOnUse">
<stop stop-color="#B3FF66"/>
<stop offset="1" stop-color="#99EB47"/>
</linearGradient>
<linearGradient id="paint8_linear_1_2" x1="208" y1="224" x2="208" y2="288" gradientUnits="userSpaceOnUse">
<stop stop-color="#FFB366"/>
<stop offset="1" stop-color="#F2800D"/>
</linearGradient>
<linearGradient id="paint9_linear_1_2" x1="64" y1="416" x2="64" y2="480" gradientUnits="userSpaceOnUse">
<stop stop-color="#FFB366"/>
<stop offset="1" stop-color="#F2800D"/>
</linearGradient>
</defs>
</svg>
